<svg width="25" height="25" viewBox="0 0 25 25" fill="none" xmlns="http://www.w3.org/2000/svg">
<path d="M12.5 2.08334C18.2531 2.08334 22.9167 6.74689 22.9167 12.5C22.9167 18.2531 18.2531 22.9167 12.5 22.9167C6.74689 22.9167 2.08334 18.2531 2.08334 12.5C2.08334 6.74689 6.74689 2.08334 12.5 2.08334ZM12.5 4.16668C10.2899 4.16668 8.17026 5.04465 6.60745 6.60745C5.04465 8.17026 4.16668 10.2899 4.16668 12.5C4.16668 14.7101 5.04465 16.8298 6.60745 18.3926C8.17026 19.9554 10.2899 20.8333 12.5 20.8333C14.7101 20.8333 16.8298 19.9554 18.3926 18.3926C19.9554 16.8298 20.8333 14.7101 20.8333 12.5C20.8333 10.2899 19.9554 8.17026 18.3926 6.60745C16.8298 5.04465 14.7101 4.16668 12.5 4.16668ZM7.81251 10.9375C8.22691 10.9375 8.62434 11.1021 8.91736 11.3952C9.21039 11.6882 9.37501 12.0856 9.37501 12.5C9.37501 12.9144 9.21039 13.3118 8.91736 13.6049C8.62434 13.8979 8.22691 14.0625 7.81251 14.0625C7.39811 14.0625 7.00068 13.8979 6.70766 13.6049C6.41463 13.3118 6.25001 12.9144 6.25001 12.5C6.25001 12.0856 6.41463 11.6882 6.70766 11.3952C7.00068 11.1021 7.39811 10.9375 7.81251 10.9375ZM12.5 10.9375C12.9144 10.9375 13.3118 11.1021 13.6049 11.3952C13.8979 11.6882 14.0625 12.0856 14.0625 12.5C14.0625 12.9144 13.8979 13.3118 13.6049 13.6049C13.3118 13.8979 12.9144 14.0625 12.5 14.0625C12.0856 14.0625 11.6882 13.8979 11.3952 13.6049C11.1021 13.3118 10.9375 12.9144 10.9375 12.5C10.9375 12.0856 11.1021 11.6882 11.3952 11.3952C11.6882 11.1021 12.0856 10.9375 12.5 10.9375ZM17.1875 10.9375C17.6019 10.9375 17.9993 11.1021 18.2924 11.3952C18.5854 11.6882 18.75 12.0856 18.75 12.5C18.75 12.9144 18.5854 13.3118 18.2924 13.6049C17.9993 13.8979 17.6019 14.0625 17.1875 14.0625C16.7731 14.0625 16.3757 13.8979 16.0827 13.6049C15.7896 13.3118 15.625 12.9144 15.625 12.5C15.625 12.0856 15.7896 11.6882 16.0827 11.3952C16.3757 11.1021 16.7731 10.9375 17.1875 10.9375Z" fill="#007AFF"/>
</svg>
