<svg width="28" height="28" viewBox="0 0 28 28" fill="none" xmlns="http://www.w3.org/2000/svg">
<path d="M3.85749 24.787H24.1425C26.592 24.787 27.8225 23.5685 27.8225 21.1545V6.84499C27.8225 4.43099 26.592 3.21249 24.1425 3.21249H3.85749C1.41999 3.21299 0.17749 4.41999 0.17749 6.84499V21.155C0.17749 23.5805 1.41999 24.787 3.85749 24.787ZM3.89249 22.901C2.72049 22.901 2.06449 22.28 2.06449 21.061V6.93999C2.06449 5.72099 2.72049 5.09999 3.89249 5.09999H9.10749V22.901H3.89249ZM24.1075 5.09999C25.2675 5.09999 25.9355 5.72099 25.9355 6.93999V21.06C25.9355 22.279 25.2675 22.9 24.1075 22.9H10.9475V5.09949L24.1075 5.09999ZM6.85749 9.44799C7.20899 9.44799 7.52549 9.13149 7.52549 8.79149C7.52549 8.43999 7.20899 8.13549 6.85749 8.13549H4.33749C3.98649 8.13549 3.68149 8.43999 3.68149 8.79149C3.68149 9.13149 3.98649 9.44799 4.33799 9.44799H6.85749ZM6.85749 12.483C7.20899 12.483 7.52549 12.1665 7.52549 11.815C7.52549 11.4635 7.20899 11.17 6.85749 11.17H4.33749C3.98649 11.17 3.68149 11.4635 3.68149 11.815C3.68149 12.1665 3.98649 12.483 4.33799 12.483H6.85749ZM6.85749 15.5065C7.20899 15.5065 7.52549 15.2135 7.52549 14.8615C7.52549 14.5105 7.20899 14.2055 6.85749 14.2055H4.33749C3.98649 14.2055 3.68149 14.5105 3.68149 14.862C3.68149 15.2135 3.98649 15.5065 4.33799 15.5065H6.85749Z" fill="#007AFF"/>
</svg>
